# xmcd CD database file
#
# Track frame offsets:
#	150
#	12436
#	27560
#	40595
#	54378
#	65852
#	78809
#	91694
#	104036
#	116118
#	127881
#	141827
#	152389
#	164253
#	175610
#
# Disc length: 2535 seconds
#
# Revision: 4
# Processed by: cddbd v1.5.2PL0 Copyright (c) Steve Scherf et al.
# Submitted via: CDex 1.99.1
#
DISCID=bb09e50f
DTITLE=Otis Redding - The Definitive Soul Collection CD2
DYEAR=2006
DGENRE=Soul
TTITLE0=Fa-Fa-Fa-Fa-Fa (Sad Song)
TTITLE1=Try A Little Tenderness
TTITLE2=I Love You More Than Words Can Say
TTITLE3=Tramp - Otis And Carla
TTITLE4=Shake
TTITLE5=Knock On Wood - Otis And Carla
TTITLE6=Glory Of Love
TTITLE7=(Sittin' On) The Dock Of The Bay
TTITLE8=The Happy Song (Dum-Dum)
TTITLE9=Lovey Dovey - Otis And Carla
TTITLE10=Amen
TTITLE11=Hard To Handle
TTITLE12=Look At The Girl
TTITLE13=Papa's Got A Brand New Bag
TTITLE14=I've Got Dreams To Remember
EXTD=YEAR: 2006
EXTT0=
EXTT1=
EXTT2=
EXTT3=
EXTT4=
EXTT5=
EXTT6=
EXTT7=
EXTT8=
EXTT9=
EXTT10=
EXTT11=
EXTT12=
EXTT13=
EXTT14=
PLAYORDER=
